<svg xmlns="http://www.w3.org/2000/svg" viewBox="0 0 4939.94 766.31"><defs><style>.cls-1{fill:#090f1f;}.cls-2{fill:#3ea0dc;}.cls-3{fill:#17904c;}.cls-4{fill:#d71f1e;}</style></defs><g id="Calque_2" data-name="Calque 2"><g id="Calque_1-2" data-name="Calque 1"><g id="LOGO"><g id="AMAZONIA_Vecto" data-name="AMAZONIA Vecto"><path class="cls-1" d="M743.85,533.63,835.8,232.68h84.85l92,301H954.09L872.17,268.21H883L802.36,533.63ZM799,470.93V417.85H957.85v53.08Z"/><path class="cls-1" d="M1039.78,533.63V232.68h51l99.48,199.8,99.48-199.8h51v301h-53.09V353.9l-87.36,179.73h-20.06L1092.86,353.9V533.63Z"/><path class="cls-1" d="M1367.89,533.63l91.95-300.95h84.85l92,301h-58.52l-81.92-265.42h10.87l-80.67,265.42Zm55.17-62.7V417.85H1581.9v53.08Z"/><path class="cls-1" d="M1655.46,533.63v-7.11l143-240.75H1668V232.68h229.89v7.11L1755.78,480.13h137.93v53.5Z"/><path class="cls-1" d="M2066.75,539.9q-45.13,0-77.85-19.65t-50.37-55q-17.65-35.31-17.65-82.13T1938.53,301q17.67-35.31,50.37-55t77.85-19.65q45.15,0,77.85,19.65T2195,301q17.66,35.33,17.66,82.14T2195,465.29q-17.67,35.32-50.37,55T2066.75,539.9Zm0-53.5q28.64.42,47.65-12.33t28.53-36.16q9.51-23.4,9.51-54.75t-9.51-54.34q-9.51-23-28.53-35.74t-47.65-13.17q-28.63-.41-47.65,12.33t-28.53,36.16q-9.51,23.42-9.51,54.76t9.51,54.33q9.51,23,28.53,35.74T2066.75,486.4Z"/><path class="cls-1" d="M2244,533.63V232.68h57.68l130.83,200.63V232.68h57.68v301h-57.68L2301.65,333V533.63Z"/><path class="cls-1" d="M2542.41,533.63V232.68h56.84v301Z"/><path class="cls-1" d="M2630.6,533.63l92-300.95h84.85l92,301h-58.52l-81.92-265.42h10.87l-80.67,265.42Zm55.17-62.7V417.85h158.84v53.08Z"/><path class="cls-1" d="M2978.78,533.63l91.95-300.95h84.85l92,301H3189L3107.1,268.21H3118l-80.67,265.42Zm55.17-62.7V417.85h158.83v53.08Z"/><path class="cls-1" d="M3395.51,539.9q-45.15,0-77.85-19.65t-50.37-55q-17.65-35.31-17.66-82.13T3267.29,301q17.65-35.31,50.37-55t77.85-19.65q51.82,0,87,25.71t49.64,69.59l-57.27,15.89q-8.36-27.39-28.21-42.53t-51.2-15.16q-28.64,0-47.76,12.75T3319,328.61q-9.61,23.19-9.62,54.55T3319,437.7q9.6,23.21,28.73,35.95t47.76,12.75q31.35,0,51.2-15.26t28.21-42.42l57.27,15.88q-14.43,43.89-49.64,69.59T3395.51,539.9Z"/><path class="cls-1" d="M3538.46,533.63l91.95-300.95h84.85l92,301H3748.7l-81.92-265.42h10.87L3597,533.63Zm55.17-62.7V417.85h158.83v53.08Z"/><path class="cls-1" d="M3834.39,533.63V232.68h97.39q3.54,0,14.63.21a209.36,209.36,0,0,1,21.31,1.46q36.38,4.4,61.66,25.29t38.45,53.09Q4081,344.91,4081,383.16t-13.17,70.43q-13.17,32.18-38.45,53.08T3967.72,532a209.36,209.36,0,0,1-21.31,1.46q-11.09.21-14.63.21Zm57.68-53.5h39.71q5.64,0,15.25-.32a113.43,113.43,0,0,0,17.35-1.77q19.63-4,32.08-18.39a92.09,92.09,0,0,0,18.39-34.7,150.69,150.69,0,0,0-.21-84.64q-6.16-20.26-18.7-34.27a55.74,55.74,0,0,0-31.56-17.77,92.36,92.36,0,0,0-17.35-1.88c-6.41-.13-11.49-.21-15.25-.21h-39.71Z"/><path class="cls-1" d="M4120.7,533.63V232.68h196.45v53.09h-139.6v64.37h114.52v53.08H4177.55v77.33h139.6v53.08Z"/><path class="cls-1" d="M4356.86,533.63V232.68h51l99.48,199.8,99.48-199.8h51v301h-53.09V353.9l-87.36,179.73H4497.3L4409.94,353.9V533.63Z"/><path class="cls-1" d="M4779.43,533.63V411.16L4676.61,232.68h66.46L4808.27,346l65.21-113.28h66.46L4837.11,411.16V533.63Z"/></g><g id="Illustration"><polygon class="cls-2" points="312.37 0 195.31 77.01 195.31 371.76 312.37 294.76 312.37 0"/><polygon class="cls-1" points="311.95 394.55 194.88 471.55 194.88 766.31 311.95 689.31 311.95 394.55"/><polygon class="cls-3" points="117.44 661.6 0 586.27 0 302.38 117.44 227.04 117.44 661.6"/><polygon class="cls-4" points="390.54 532.39 507.98 457.06 507.98 173.17 390.54 97.84 390.54 532.39"/></g></g></g></g></svg>